<svg width="36" height="35" viewBox="0 0 36 35" fill="none" xmlns="http://www.w3.org/2000/svg">
<path d="M27.4673 14.9891C27.5635 14.3885 27.6235 13.7299 27.6386 12.9915C27.6328 9.82517 26.0969 8.70478 25.8014 8.17953C26.2366 5.78043 25.7293 4.68916 25.4933 4.31559C24.623 4.01075 22.4654 5.10239 21.2865 5.87086C19.3645 5.31563 15.3026 5.36982 13.7793 6.01457C10.9688 4.0286 9.48233 4.33141 9.48233 4.33141C9.48233 4.33141 8.52132 6.03199 9.22828 8.51986C8.30356 9.68275 7.61431 10.5049 7.61431 12.6858C7.61431 13.2081 7.64718 13.7016 7.70296 14.1765C8.49933 18.3086 11.8172 20.0913 15.0764 20.3987C14.5859 20.7665 13.9971 21.4624 13.9157 22.2688C13.2994 22.662 12.0599 22.792 11.0959 22.4929C9.74531 22.0718 9.22828 19.4324 7.2057 19.8089C6.76806 19.8897 6.85504 20.1746 7.23402 20.4174C7.85021 20.8119 8.43056 21.3021 8.87789 22.3513C9.22146 23.1568 9.94407 24.595 12.2287 24.595C13.1357 24.595 13.7709 24.4892 13.7709 24.4892C13.7709 24.4892 13.7882 26.5418 13.7882 27.3423C13.7882 28.2636 12.5283 28.5223 12.5283 28.9642C12.5283 29.14 12.9453 29.1567 13.2804 29.1567C13.9427 29.1567 15.3207 28.6123 15.3207 27.6548C15.3207 26.8939 15.333 24.3369 15.333 23.8891C15.333 22.9107 15.8643 22.5992 15.8643 22.5992C15.8643 22.5992 15.9293 27.8221 15.7364 28.5223C15.5102 29.3458 15.1004 29.2288 15.1004 29.5952C15.1004 30.1421 16.757 29.729 17.3065 28.5319C17.7316 27.5969 17.5412 22.475 17.5412 22.475L17.9844 22.4655C17.9844 22.4655 17.9894 24.8113 17.9742 25.8829C17.9582 26.9929 17.8421 28.3961 18.5102 29.0584C18.9487 29.494 20.2921 30.2583 20.2921 29.5598C20.2921 29.155 19.3514 28.8205 19.3514 27.7239V22.6719C19.9229 22.6719 20.041 24.3325 20.041 24.3325L20.247 27.4177C20.247 27.4177 20.1102 28.5435 21.4794 29.0133C21.9627 29.1804 22.9968 29.2258 23.0452 28.9454C23.0938 28.6643 21.8002 28.2486 21.7879 27.3772C21.7812 26.8465 21.812 26.5359 21.812 24.2276C21.812 21.9205 21.4979 21.067 20.4035 20.3869C23.5771 20.0655 26.8735 18.6668 27.4673 14.9891Z" fill="white"/>
</svg>
