<svg width="36" height="35" viewBox="0 0 36 35" fill="none" xmlns="http://www.w3.org/2000/svg">
<path fill-rule="evenodd" clip-rule="evenodd" d="M8.86644 9.99704C10.804 9.99704 12.0101 8.72278 12.0101 7.13038C11.974 5.50207 10.8041 4.26318 8.90321 4.26318C7.00263 4.26318 5.75977 5.5021 5.75977 7.13038C5.75977 8.72286 6.96551 9.99704 8.83017 9.99704H8.86627H8.86644ZM11.6425 28.8586V12.2642H6.08623V28.8586H11.6425ZM20.2754 28.8585H14.7191L14.7192 28.8582C14.7192 28.8582 14.7921 13.8209 14.7192 12.2638H20.2755V14.6134C21.0139 13.4827 22.3356 11.8745 25.283 11.8745C28.9387 11.8745 31.6798 14.2462 31.6798 19.3433V28.8584H26.1239V19.9808C26.1239 17.75 25.3196 16.2282 23.309 16.2282C21.7741 16.2282 20.8599 17.2545 20.4582 18.2454C20.3115 18.6 20.2754 19.0954 20.2754 19.5914V28.8585Z" fill="white"/>
</svg>
