<svg width="36" height="35" viewBox="0 0 36 35" fill="none" xmlns="http://www.w3.org/2000/svg">
<path d="M28.1714 8.21532L30.2403 6.13886V5.68408H23.0752L17.9688 19.0242L12.1604 5.68408H4.64769V6.13886L7.06419 9.19185C7.30044 9.41748 7.42194 9.74886 7.39156 10.0803V22.0772C7.46581 22.5108 7.33419 22.9515 7.04394 23.2652L4.32031 26.7307V27.1784H12.0356V26.7236L9.31531 23.2688C9.16955 23.1142 9.05993 22.9266 8.99496 22.7205C8.92999 22.5144 8.91139 22.2955 8.94069 22.0807V11.7019L15.7143 27.1855H16.5007L22.3259 11.7019V24.0373C22.3259 24.3616 22.3259 24.4286 22.1234 24.6437L20.0276 26.7695V27.2243H30.1931V26.7695L28.1714 24.693C27.9959 24.552 27.9048 24.3158 27.9419 24.0866V8.82168C27.9245 8.70841 27.9365 8.59229 27.9769 8.48557C28.0173 8.37886 28.0845 8.28551 28.1714 8.21532Z" fill="white"/>
</svg>
