<svg width="36" height="35" viewBox="0 0 36 35" fill="none" xmlns="http://www.w3.org/2000/svg">
<path d="M30.2403 9.53624C29.2871 9.93581 28.2498 10.2234 27.1814 10.3354C28.2907 9.69498 29.1214 8.6832 29.5176 7.48992C28.4767 8.09168 27.3363 8.51362 26.1472 8.73708C25.6502 8.22075 25.0491 7.8094 24.3813 7.5287C23.7135 7.24797 22.9935 7.10391 22.2659 7.10548C19.3222 7.10548 16.9548 9.42423 16.9548 12.2697C16.9548 12.6693 17.0046 13.0689 17.0856 13.4533C12.6779 13.2293 8.74674 11.183 6.13325 8.04993C5.65706 8.84034 5.40748 9.74035 5.41057 10.6563C5.41057 12.4483 6.34818 14.0284 7.77797 14.9578C6.93536 14.9255 6.1125 14.7005 5.3763 14.3009V14.3644C5.3763 16.8739 7.2017 18.9535 9.63452 19.4318C9.17773 19.5471 8.70784 19.6061 8.23588 19.6074C7.89011 19.6074 7.56304 19.5741 7.23285 19.5287C7.90569 21.575 9.86503 23.0613 12.1982 23.1097C10.3728 24.4992 8.08636 25.3165 5.6037 25.3165C5.15825 25.3165 4.74707 25.3013 4.32031 25.2529C6.67526 26.721 9.46942 27.5686 12.4785 27.5686C22.2472 27.5686 27.5926 19.7042 27.5926 12.8781C27.5926 12.6541 27.5926 12.4301 27.577 12.2061C28.6112 11.4705 29.5176 10.5594 30.2403 9.53624Z" fill="white"/>
</svg>
